<svg viewBox="0 0 663.62 151.33" xmlns="http://www.w3.org/2000/svg" data-name="Layer 2" id="Layer_2">
  <g data-name="Layer 1" id="Layer_1-2">
    <path style="fill: #231f20; stroke-width: 0px;" d="M337.84,108.02c-19.92-3.74-38.75-7.29-56.94-7.29-.28,0-.55.01-.82.02-.22,0-.44.01-.67.02h-.46s.24-.4.24-.4c3.77-6.22,6.98-12.05,9.57-16.74.86-1.56,1.66-3,2.38-4.3,9.53-17,16.06-22.51,17.68-23.71-2.94-1.17-10.07-.46-18.76,9.94l-1.56,1.59c-3.15,3.2-6.41,6.52-10.64,10.38-5.22,4.64-8.85,7.46-12.51,9.75-2.13,1.11-3.57,1.36-4.29.74-.59-.67-.47-2.06.27-3.56,1.37-2.95,3.57-6.59,6.34-10.52,3.64-5.21,6.72-9.45,9.15-12.59,1.14-1.55,2.23-3.14,1.78-4.06-.31-.62-1.34-.93-3.08-.93-.99,0-3.47,1-5.74,2.61-2.07,1.23-7.3,5.89-8.65,7.38-2.11,2.14-4.48,4.47-7.04,6.92l-.2.19c-4.23,4.03-7.75,7.2-9.07,8.37l-.33.28c-.16.13-.32.27-.47.38-7.63,5.76-13.62,7.3-15.96,7.3-2.82,0-4.25-1.5-4.25-4.46,0-1.18.27-3.02,1.04-4.33l.05-.1.11-.02c3.83-.88,11.32-3.17,16.23-5.88,4.88-2.7,10.52-6.46,10.85-11.6.08-1.4-.33-2.63-1.17-3.54-1.16-1.25-3.14-1.91-5.72-1.91h-.17c-5.21,0-10.84,1.82-17.7,5.71-2.72,1.76-5.96,4.33-8.95,7.93-1.77,2.24-4.09,5.94-4.81,7.71-.77.74-1.52,1.45-2.16,2.04-2.05,2.02-4.4,3.77-7.2,5.37-1.49.95-3.45,1.62-4.43.94-.96-.88-.83-2.28.41-4.72,1.03-1.77,2.74-4.31,5.17-7.85l.78-1.1c2.43-3.45,5.18-7.36,5.33-10.39.14-1.54-.2-2.77-1.02-3.68-1.03-1.16-2.84-1.76-5.21-1.76-7.2,0-15.22,6.06-20.63,10.61-6.4,5.26-12.26,10.63-15.62,13.9l-.14.13-2.09,1.8,1.51-2.46c.81-1.19,1.67-2.45,2.57-3.74,1.7-2.46,3.45-5.01,5.08-7.5,1.79-2.61,3.62-5.63,3.62-8.24,0-3.03-1.82-4.5-5.57-4.5-4.47,0-14.48,5.16-17.74,6.46l-2.14.85-.04-.34c-.25-2.13-1.23-3.97-2.61-4.92-2.61-1.99-6.18-2.24-9.01-2.24-6.05.2-12.94,3.19-17,5.68-3.15,1.89-7.45,5.26-10.07,9.07-1.93,2.49-2.94,5.24-3.46,7.12l-.02.07-.05.05c-1.64,1.56-2.8,2.61-3.65,3.3-4.87,3.96-8.9,5.97-11.97,5.97-1.47,0-3.24-.86-3.42-3.29-.62-5.97,8.42-20.08,16.37-31.7l.07-.11h.12c12.39-.71,22.77-4.35,28.63-6.88-9.99,3.25-18.38,3.21-25.42,2.66l-.44-.03.34-.51c3.11-4.75,7.53-10.75,11.82-16.04,7.26-8.72,10.98-12.91,15.18-16.24,1.89-1.53,8.55-6.53,14.96-6.53s8.79,2.98,9.88,5.49c.19.44.31.83.4,1.13.05.15.1.32.15.42.29-.24.41-1.17-.03-2.5-.94-3.23-4.58-6.49-10.57-6.49s-13.29,2.29-19.99,6.44c-9.33,5.56-18.45,15.01-23.06,20.16-4.16,4.43-7.82,8.73-11.22,13.13l-.09.12-.15-.02c-6.93-.92-13.26-1.7-20.5-1.88h-.46s.26-.41.26-.41c2.48-3.75,5.57-8.42,9.47-14.12,4.47-6.3,7.99-10.67,12.17-15.09.46-.52.89-.96,1.28-1.33.58-.57,1.09-1.07,1.06-1.36,0-.1-.11-.22-.29-.34-.84-.55-2.23.39-3.99,1.58-.34.23-.7.47-1.06.71-3.7,2.36-17.31,1.09-30.48-.13-3.09-.29-6.02-.55-8.77-.78-14.56-1.25-26.33,1.63-34.02,8.33-5.5,4.78-8.71,11.44-9.28,19.25-.81,9.81,5.84,19.32,15.8,22.61,1.37.48,2.35.49,2.71.31.11-.06.12-.11.13-.13.05-.17.06-.21-.95-.53-.25-.08-.54-.17-.88-.29-11.82-4.37-12.69-15.06-12.15-21.05,1.37-15.34,15.04-24.31,36.78-24.31.96,0,1.92.02,2.91.05,14.42.57,30.07,1.12,38.31-2.18l-1.13.61c-12.27,5.95-23.83,19.09-31.38,28.93l-.07.09h-.11c-14.91,1.35-23.57,5.22-27.11,7.17,7.74-2.44,15.68-3.62,24.21-3.62h.46l-.25.4c-.26.43-.57.93-1.05,1.78-.82,1.2-1.67,2.48-2.57,3.82-9.75,14.55-24.48,36.53-40.9,36.53-3.55,0-7.4-1.52-7.58-5.78,0-1.83.71-3.41,2.24-4.96,1.56-1.59,2.44-3.46,2.59-5.55.17-2.23-.45-4.24-1.74-5.66-1.12-1.23-2.61-1.87-4.33-1.87-5.08,0-9.06,4.57-9.06,10.41,0,6.74,4.47,14.61,17.04,14.61,25.22,0,44.43-22.45,58.34-42.02l.65-.86c2.99.33,5.96.72,8.84,1.1,3.76.49,7.3.96,10.91,1.31l.46.04-.27.37c-4.74,6.56-14.59,20.21-14.29,29.25.15,5.49,4.02,8.51,10.89,8.51s13.28-5.06,15.9-7.23l.4-.34c.55-.47,1.23-1.09,2.09-1.88l.49-.46-.07.68c-.01.14-.03.28-.05.43-.03.24-.07.47-.07.67,0,5.69,3.94,8.7,11.39,8.7h.16c6.5,0,15.63-4.32,20.37-8.31,1.62-1.38,3.12-2.88,4.46-4.47.04-.04.08-.09.12-.14l.08-.08c3.42-4.05,5.67-8.32,6.17-11.72l.03-.15s13.09-6.08,13.81-4.97c.86.74.28,1.96-.47,3.17-.78,1.2-1.66,2.48-2.49,3.68-.6.87-1.21,1.76-1.84,2.68-.85,1.23-1.74,2.55-2.65,3.94-.26.36-.51.73-.77,1.1l-.09.13c-2.67,3.88-5.39,8.5-6.78,11.51l-.02.07c-.37,1.03-.42,1.64-.17,2.01.39.54,1.58.71,4.11.59,3.33-.18,5.02-.53,6.82-2.22,6.76-6.27,11.23-10.41,18.97-16.97,4.81-4.13,9.08-7.3,12.35-9.17,2.57-1.47,4.13-1.88,5.07-1.33.38.14.66.43.78.82.17.57-.02,1.31-.52,2.04-1.94,2.83-4.43,6.24-6.83,9.35-3.47,4.97-5.62,8.19-5.94,11.49-.2,1.37-.18,3.3,1.06,4.71,1.15,1.32,3.08,1.95,5.83,1.86,4.27,0,9.39-2.54,15.65-7.76.64-.52,1.66-1.44,2.87-2.56-.17.81-.27,1.61-.27,2.38-.08,2.55.54,4.44,1.89,5.82,1.82,1.84,5,2.69,9.49,2.49,6.43-.19,13.15-2.99,19.98-8.33,3.35-2.51,8.82-7.67,11.06-9.95l-1.49,2.18c-.68,1.02-1.29,1.95-1.8,2.78-1.93,3.01-2.79,5.38-2.79,7.68-.08,1.64.33,2.95,1.23,3.9,1.08,1.16,2.82,1.75,5.17,1.75,7.22,0,14.48-6.23,19.78-10.79,1.23-1.05,4.45-3.87,8.32-7.57l1.45-1.39-1.06,1.72c-.98,1.59-1.91,3.18-2.84,4.87-1.28,2.32-2.57,4.69-3.88,7.09-2.66,4.89-5.42,9.94-8.24,14.92l-.07.11h-.12c-17.02,2.07-33.21,8.54-45.56,18.22-10.3,8.07-16.71,17.58-16.32,24.24.28,4.77,4.08,7.38,10.71,7.38,20.33,0,40.04-15.83,60.23-48.41l.08-.12h.13c.17,0,.34-.01.5-.02.23,0,.45-.01.67-.01,12.8,0,30.46,4.26,49.15,8.76,22.33,5.38,45.43,10.95,65.39,10.95,11.45,0,28.73-1.89,46.04-10.86,5.27-2.73,9.29-5.49,11.97-7.54-7.22,4.23-23.99,11.5-53.92,11.5-19.6,0-40.05-3.84-59.83-7.56M225.68,79.13c1.73-3.61,4.43-7.72,8.01-12.25h0c3.84-4.74,7.1-7.34,9.18-7.34.72,0,1.3.24,1.68.72.46.57.6,1.42.39,2.45-.33,2.52-3.05,7.18-7.41,10.83-3.7,3.06-8.04,5.29-11.59,5.97l-.5.09.23-.47ZM148.16,60.81c.32.61.49,2.09.51,2.47.04.8-.09,1.71-.38,2.73-.09.4-.26.98-.57,1.74-.01,0-.02,0-.03,0-1.23.31-2.48.53-3.7.59-1.32.04-2.7-.04-3.68-.7-.83-.53-1.12-1.34-1.15-2.14,0-.21,0-.42.03-.62.09-.99.55-1.95,1.22-2.72.64-.82,1.57-1.37,2.67-1.9,1.04-.48,2.36-.78,3.59-.62.66.14,1.2.6,1.5,1.17M146.34,70.57l-.13.23c-.04.07-.08.13-.12.2l-.11.18c-.3.52-.61,1.02-.93,1.52-.03.04-.04.08-.07.12-.01.02-.03.03-.04.05-1.61,2.51-3.37,4.74-4.41,6v.04s-.06.1-.06.1c-4.96,5.87-12.37,12.1-16.33,12.1h-.17c-1.91,0-2.59-1.58-2.59-2.93.17-4.18,4.66-11.58,8.85-16.51,1.09-1.34,2.42-2.86,3.82-4.19,0,0,0,0,0,0,.46-.48.92-.94,1.37-1.37.04.13.09.26.15.39.25.57.59,1.11.98,1.57.79.85,1.67,1.32,2.56,1.7.57.24,1.12.38,1.67.49,1.16.23,2.28.21,3.32.08.91-.11,1.77-.31,2.61-.54-.13.24-.26.49-.4.75h.01ZM267.19,104.15c-13.11,22.75-29.18,46-49.01,46-2.55,0-4.07-1.4-4.27-3.93-.77-9.92,18.99-36.93,53.02-42.45l.54-.09-.28.48Z"/>
  </g>
</svg>
