<svg width="74" height="16" viewBox="0 0 74 16" fill="none" xmlns="http://www.w3.org/2000/svg">
<g id="svgexport-70" clip-path="url(#clip0_17398_150327)">
<path id="Vector" d="M72.655 3.54774L70.4408 2.28065L68.1946 0.994352C66.7099 0.143223 64.8541 1.21193 64.8541 2.92699V3.21497C64.8532 3.29325 64.8735 3.3703 64.913 3.43792C64.9524 3.50554 65.0095 3.56119 65.0781 3.59894L66.1212 4.19409C66.1871 4.23175 66.2617 4.25139 66.3376 4.25104C66.4135 4.25068 66.4879 4.23034 66.5535 4.19207C66.619 4.15379 66.6733 4.09892 66.7108 4.033C66.7484 3.96707 66.768 3.8924 66.7675 3.81652V3.13177C66.7674 3.05452 66.7875 2.97859 66.826 2.91158C66.8644 2.84457 66.9198 2.78883 66.9865 2.74995C67.0533 2.71106 67.1291 2.6904 67.2063 2.69002C67.2835 2.68965 67.3595 2.70957 67.4267 2.74781L69.4745 3.92531L71.5159 5.09641C71.5829 5.13486 71.6386 5.19032 71.6773 5.25717C71.716 5.32403 71.7364 5.39992 71.7364 5.47718C71.7364 5.55444 71.716 5.63033 71.6773 5.69718C71.6386 5.76404 71.5829 5.8195 71.5159 5.85795L69.4745 7.02905L67.4267 8.20655C67.3595 8.24458 67.2836 8.26434 67.2064 8.26387C67.1292 8.2634 67.0535 8.24271 66.9868 8.20386C66.9201 8.16502 66.8648 8.10937 66.8263 8.04247C66.7878 7.97557 66.7676 7.89976 66.7675 7.82258V7.48341C66.7675 5.76835 64.9117 4.69324 63.427 5.55077L61.1808 6.83707L58.9666 8.10416C57.4755 8.96169 57.4755 11.1183 58.9666 11.9758L61.1808 13.2429L63.427 14.5292C64.9117 15.3804 66.7675 14.3116 66.7675 12.5966V12.3086C66.7684 12.2303 66.7481 12.1533 66.7086 12.0857C66.6692 12.018 66.6121 11.9624 66.5435 11.9246L65.5004 11.3295C65.4345 11.2918 65.3599 11.2722 65.284 11.2725C65.2081 11.2729 65.1337 11.2932 65.0682 11.3315C65.0026 11.3698 64.9483 11.4247 64.9108 11.4906C64.8732 11.5565 64.8536 11.6312 64.8541 11.7071V12.3918C64.8542 12.4691 64.8341 12.545 64.7956 12.612C64.7572 12.679 64.7019 12.7347 64.6351 12.7736C64.5683 12.8125 64.4926 12.8332 64.4153 12.8336C64.3381 12.8339 64.2621 12.814 64.1949 12.7758L62.1471 11.5983L60.1057 10.4272C60.0387 10.3887 59.983 10.3333 59.9443 10.2664C59.9056 10.1995 59.8852 10.1237 59.8852 10.0464C59.8852 9.96914 59.9056 9.89325 59.9443 9.82639C59.983 9.75954 60.0387 9.70408 60.1057 9.66563L62.1471 8.49453L64.1949 7.31703C64.2621 7.279 64.338 7.25923 64.4152 7.25971C64.4924 7.26018 64.5681 7.28087 64.6348 7.31971C64.7015 7.35856 64.7568 7.4142 64.7953 7.4811C64.8338 7.548 64.854 7.62382 64.8541 7.70099V8.04016C64.8541 9.75522 66.7099 10.8303 68.1946 9.9728L70.4408 8.68651L72.655 7.41942C74.1461 6.55549 74.1461 4.40527 72.655 3.54774ZM58.1282 3.9701L52.9447 14.6764H50.7945L52.7335 10.6767L49.681 3.9701H51.8888L53.847 8.46253L55.9844 3.9701H58.1282ZM6.29896 7.77139C6.29896 6.49149 5.37104 5.59557 4.23193 5.59557C3.09283 5.59557 2.16491 6.51069 2.16491 7.77139C2.16491 9.01928 3.09283 9.94721 4.23193 9.94721C5.37104 9.94721 6.29896 9.05128 6.29896 7.77139ZM6.31816 11.5727V10.5872C5.75501 11.2719 4.91668 11.6943 3.91836 11.6943C1.83213 11.6943 0.251465 10.024 0.251465 7.77139C0.251465 5.53797 1.89613 3.83572 3.96316 3.83572C4.41217 3.83278 4.85625 3.92939 5.26345 4.11861C5.67066 4.30783 6.03086 4.58494 6.31816 4.93002V3.9701H8.1868V11.5727H6.31816ZM17.274 9.88321C16.6213 9.88321 16.4357 9.64003 16.4357 9.00009V5.62757H17.6388V3.9701H16.4357V2.11426H14.5223V3.9701H12.0521V3.21497C12.0521 2.57502 12.2953 2.33184 12.9672 2.33184H13.3896V0.859963H12.468C10.8874 0.859963 10.1386 1.37832 10.1386 2.95899V3.9765H9.07633V5.62757H10.1386V11.5727H12.0521V5.62757H14.5223V9.35206C14.5223 10.9007 15.1174 11.5727 16.6661 11.5727H17.6516V9.88321H17.274ZM24.1471 7.08664C24.0127 6.10113 23.2064 5.50598 22.2592 5.50598C21.3121 5.50598 20.5378 6.08193 20.3458 7.08664H24.1471ZM20.3266 8.27055C20.461 9.39685 21.2673 10.0368 22.2912 10.0368C23.0976 10.0368 23.7183 9.65923 24.0831 9.05128H26.0477C25.5934 10.6639 24.1471 11.6943 22.2464 11.6943C19.949 11.6943 18.3364 10.0816 18.3364 7.78419C18.3364 5.48678 20.0386 3.82932 22.2912 3.82932C24.5566 3.82932 26.2013 5.49958 26.2013 7.78419C26.2027 7.9474 26.1877 8.11034 26.1565 8.27055H20.3266ZM38.3859 7.77139C38.3859 6.54269 37.458 5.59557 36.3189 5.59557C35.1798 5.59557 34.2518 6.51069 34.2518 7.77139C34.2518 9.01928 35.1798 9.94721 36.3189 9.94721C37.458 9.94721 38.3859 9.00648 38.3859 7.77139ZM32.364 14.6764V3.9701H34.2326V4.95562C34.7958 4.25808 35.6341 3.82932 36.6324 3.82932C38.6867 3.82932 40.2993 5.51877 40.2993 7.75219C40.2993 9.9856 38.6547 11.6879 36.5876 11.6879C35.6277 11.6879 34.8406 11.3103 34.2902 10.6703V14.67H32.364V14.6764ZM47.038 7.77139C47.038 6.49149 46.11 5.59557 44.9709 5.59557C43.8318 5.59557 42.9039 6.51069 42.9039 7.77139C42.9039 9.01928 43.8318 9.94721 44.9709 9.94721C46.11 9.94721 47.038 9.05128 47.038 7.77139ZM47.0572 11.5727V10.5872C46.494 11.2719 45.6557 11.6943 44.6574 11.6943C42.5711 11.6943 40.9905 10.024 40.9905 7.77139C40.9905 5.53797 42.6351 3.83572 44.7022 3.83572C45.1512 3.83278 45.5953 3.92939 46.0025 4.11861C46.4097 4.30783 46.7699 4.58494 47.0572 4.93002V3.9701H48.9258V11.5727H47.0572ZM28.9915 4.71244C28.9915 4.71244 29.465 3.82932 30.6361 3.82932C30.9187 3.82409 31.1988 3.88317 31.4553 4.0021V5.94114C31.4553 5.94114 30.7513 5.50598 30.105 5.59557C29.4586 5.68516 29.0491 6.27391 29.0491 7.06745V11.5663H27.1164V3.9701H28.9851V4.71244H28.9915Z" fill="white" fill-opacity="0.56"/>
</g>
<defs>
<clipPath id="clip0_17398_150327">
<rect width="73.5222" height="15.5214" fill="white" transform="translate(0.251465)"/>
</clipPath>
</defs>
</svg>