<svg width="36" height="15" viewBox="0 0 36 15" fill="none" xmlns="http://www.w3.org/2000/svg">
<g id="svgexport-57" clip-path="url(#clip0_17398_150321)">
<path id="payment/apple" d="M29.617 14.8592C31.2598 14.8592 32.0277 14.2521 32.6973 12.4039L35.6436 4.36847H33.9383L31.9652 10.6183L29.992 4.36847H28.2064L31.0456 12.0289L30.8938 12.4932C30.8389 12.8197 30.6636 13.1137 30.4023 13.3171C30.1411 13.5204 29.8131 13.6183 29.4831 13.5914C29.3196 13.6013 29.1556 13.6013 28.9921 13.5914V14.8503C29.2 14.8671 29.4087 14.8701 29.617 14.8592ZM23.9386 10.8236C23.0458 10.8236 22.4744 10.4129 22.4744 9.77008C22.4744 9.12724 23.019 8.71654 24.0636 8.66297L25.9296 8.54691V9.13617C25.9178 9.38063 25.8559 9.62006 25.7477 9.83958C25.6395 10.0591 25.4873 10.254 25.3006 10.4123C25.1139 10.5705 24.8966 10.6887 24.6624 10.7594C24.4281 10.8302 24.1817 10.852 23.9386 10.8236ZM23.4833 12.0736C23.9773 12.0898 24.4667 11.9743 24.9013 11.739C25.3359 11.5036 25.7001 11.1569 25.9564 10.7343V11.9932H27.51V6.75232C27.51 5.23451 26.26 4.2524 24.3404 4.2524C22.5548 4.2524 21.2423 5.25237 21.1977 6.60947H22.7065C22.8001 6.27066 23.0117 5.97646 23.3031 5.77998C23.5945 5.58351 23.9466 5.4977 24.2958 5.53807C25.3225 5.53807 25.8939 6.00234 25.8939 6.85946V7.43979L23.8047 7.5648C21.8584 7.68086 20.7959 8.45762 20.7959 9.80579C20.7959 11.154 21.9208 12.0736 23.4833 12.0736ZM14.4836 2.84173H16.421C17.8763 2.84173 18.7067 3.60063 18.7067 4.93095C18.7067 6.26126 17.8763 7.02909 16.4121 7.02909H14.4836V2.84173ZM12.8051 1.46677V11.9932H14.4836V8.42191H16.8049C17.2721 8.44668 17.7394 8.37456 18.1774 8.21009C18.6153 8.04561 19.0145 7.79233 19.3499 7.46616C19.6853 7.13999 19.9496 6.74799 20.1263 6.31477C20.3029 5.88156 20.388 5.4165 20.3763 4.94881C20.3923 4.48077 20.31 4.01457 20.1346 3.58033C19.9592 3.14609 19.6947 2.75347 19.3582 2.42784C19.0216 2.1022 18.6204 1.8508 18.1807 1.68987C17.7409 1.52894 17.2722 1.46206 16.8049 1.49356L12.8051 1.46677ZM7.24275 3.42206C6.2785 3.36849 5.45709 3.95777 4.99282 3.95777C4.52855 3.95777 3.83215 3.44885 3.06432 3.46671C2.57211 3.47619 2.09071 3.61269 1.66679 3.86297C1.24286 4.11326 0.890808 4.46884 0.644752 4.89523C-0.390929 6.68089 0.376898 9.21652 1.38579 10.6361C1.87685 11.3415 2.46612 12.1093 3.24288 12.0825C4.01964 12.0557 4.26963 11.6182 5.15353 11.6182C6.03743 11.6182 6.30528 12.0825 7.08204 12.0736C7.85881 12.0646 8.3945 11.3682 8.8677 10.6629C9.21445 10.1672 9.48528 9.62254 9.67125 9.04689C9.2115 8.8579 8.81744 8.53795 8.53805 8.12682C8.25867 7.71568 8.1063 7.2315 8.09987 6.73446C8.11072 6.29293 8.23357 5.86138 8.45689 5.48033C8.68021 5.09927 8.99669 4.7812 9.37661 4.55596C9.128 4.2198 8.80734 3.94351 8.43812 3.74731C8.0689 3.55112 7.66048 3.43998 7.24275 3.42206ZM6.63563 2.52924C6.42088 2.7927 6.1477 3.0025 5.83774 3.14198C5.52778 3.28146 5.18958 3.34679 4.84997 3.33278C4.82237 3.0079 4.86378 2.68086 4.97149 2.37312C5.07921 2.06537 5.25078 1.78388 5.47495 1.54713C5.91402 1.03532 6.53544 0.714998 7.20704 0.654297C7.2649 1.31856 7.05972 1.979 6.63563 2.49353V2.52924Z" fill="white" fill-opacity="0.56"/>
</g>
<defs>
<clipPath id="clip0_17398_150321">
<rect width="35.4899" height="14.196" fill="white" transform="translate(0.153809 0.66272)"/>
</clipPath>
</defs>
</svg>