<svg width="20" height="20" viewBox="0 0 20 20" fill="none" xmlns="http://www.w3.org/2000/svg">
<path d="M3.54709 13.8281C2.61653 12.2581 2.29103 10.4025 2.6317 8.60949C2.97237 6.81652 3.95578 5.20954 5.39731 4.09025C6.83883 2.97096 8.63934 2.41633 10.4608 2.53049C12.2823 2.64464 13.9995 3.41972 15.29 4.71023C16.5805 6.00073 17.3556 7.71791 17.4697 9.53939C17.5839 11.3609 17.0292 13.1614 15.91 14.6029C14.7907 16.0444 13.1837 17.0278 11.3907 17.3685C9.59775 17.7092 7.74208 17.3837 6.17209 16.4531V16.4531L3.57834 17.1875C3.47207 17.2186 3.3594 17.2205 3.25213 17.1931C3.14487 17.1656 3.04696 17.1098 2.96866 17.0315C2.89037 16.9533 2.83459 16.8553 2.80715 16.7481C2.77971 16.6408 2.78163 16.5281 2.81271 16.4219L3.54709 13.8281Z" stroke="black" stroke-linecap="square"/>
</svg>