<?xml version="1.0" encoding="UTF-8"?>
<!-- Generator: Adobe Illustrator 19.2.0, SVG Export Plug-In . SVG Version: 6.00 Build 0)  -->
<svg version="1.1" id="Layer_1" xmlns="http://www.w3.org/2000/svg" xmlns:xlink="http://www.w3.org/1999/xlink" x="0px" y="0px" viewBox="0 0 60.1 60.1" style="enable-background:new 0 0 60.1 60.1;" xml:space="preserve">
<path d="M37.5,30L59.1,8.4c1.2-1.2,1.2-3.2,0-4.5l-3-3c-1.2-1.2-3.2-1.2-4.5,0L30,22.6L8.4,0.9c-1.2-1.2-3.2-1.2-4.5,0l-3,3  c-1.2,1.2-1.2,3.2,0,4.5L22.6,30L0.9,51.7c-1.2,1.2-1.2,3.2,0,4.5l3,3c1.2,1.2,3.2,1.2,4.5,0L30,37.5l21.7,21.7  c1.2,1.2,3.2,1.2,4.5,0l3-3c1.2-1.2,1.2-3.2,0-4.5L37.5,30z"/>
</svg>