<svg xmlns="http://www.w3.org/2000/svg" width="54.16" height="13.38" viewBox="0 0 54.16 13.38" fill="#fff" fill-opacity=".56"><title>icon-american_express</title><g id="Icons_payment_amex" data-name="Icons/payment/amex"><path id="payment_amex" data-name="payment/amex" d="M145.3,100l-1.75,1.84L141.92,100H122.84l-1.33,3-1.43-3H105.93L100,113.38h7.51l.84-2.11H110l.92,2.11H141.5l1.9-2,1.92,2h8.57l-6-6.71,6.29-6.67Zm1,1.91h2.88l-4.33,4.72,4.2,4.84h-2.75l-2.94-3.14-2.93,3.14H130.15v-9.56h10.68l2.67,3.1Zm-22,0h3.73v9.56h-2.29v-7.65l-3.26,7.65h-2.17l-3.28-7.78v7.78h-4.63l-1-2.18h-4.79l-.84,2.18h-2.52l4.12-9.56H111l3.86,9.27v-9.27h3.72l3,6.4Zm13.49,1.91h-5.43v1.72h5.43v1.91h-5.43v2.11h5.43v1.33l4-4.35-4-4.34Zm-30.38,3.54h3.25l-1.57-3.88Z" transform="translate(-100 -100)"/></g></svg>