<svg width="22" height="14" viewBox="0 0 22 14" fill="none" xmlns="http://www.w3.org/2000/svg">
<g id="svgexport-59" clip-path="url(#clip0_17398_150325)">
<path id="payment/master" d="M11.1432 11.6873C10.4478 11.074 9.89082 10.3198 9.50933 9.47472C9.12785 8.62963 8.93055 7.71304 8.93055 6.78584C8.93055 5.85864 9.12785 4.94206 9.50933 4.09697C9.89082 3.25189 10.4478 2.49765 11.1432 1.88436C11.8386 2.49765 12.3955 3.25189 12.777 4.09697C13.1585 4.94206 13.3558 5.85864 13.3558 6.78584C13.3558 7.71304 13.1585 8.62963 12.777 9.47472C12.3955 10.3198 11.8386 11.074 11.1432 11.6873ZM6.90338 13.3212C5.90727 13.3165 4.92541 13.0843 4.03281 12.6421C3.1402 12.1999 2.36049 11.5596 1.75324 10.77C1.14599 9.98034 0.727272 9.06236 0.529089 8.08615C0.330905 7.10995 0.358498 6.10137 0.609757 5.13746C0.861015 4.17356 1.32929 3.27984 1.9788 2.5246C2.62831 1.76937 3.44187 1.1726 4.35731 0.7799C5.27275 0.387198 6.26585 0.208958 7.26071 0.258796C8.25558 0.308633 9.22589 0.585228 10.0975 1.06745C9.32017 1.79564 8.70053 2.6756 8.27692 3.65287C7.85331 4.63014 7.63474 5.68395 7.63474 6.74908C7.63474 7.81422 7.85331 8.86802 8.27692 9.8453C8.70053 10.8226 9.32017 11.7025 10.0975 12.4307C9.12252 12.9702 8.02581 13.2514 6.91155 13.2476L6.90338 13.3212ZM15.4156 13.3212C14.3013 13.3249 13.2046 13.0437 12.2296 12.5042C13.007 11.776 13.6266 10.8961 14.0502 9.91882C14.4739 8.94154 14.6924 7.88774 14.6924 6.8226C14.6924 5.75747 14.4739 4.70366 14.0502 3.72639C13.6266 2.74911 13.007 1.86916 12.2296 1.14097C13.1004 0.636077 14.0759 0.339121 15.0803 0.273255C16.0846 0.20739 17.0906 0.374397 18.0198 0.761252C18.949 1.14811 19.7763 1.74435 20.4372 2.50351C21.098 3.26266 21.5746 4.1642 21.8298 5.13783C22.0849 6.11146 22.1117 7.13087 21.9081 8.11657C21.7045 9.10227 21.276 10.0276 20.656 10.8205C20.0359 11.6133 19.2412 12.2523 18.3336 12.6874C17.426 13.1226 16.4302 13.3423 15.4238 13.3293L15.4156 13.3212Z" fill="white" fill-opacity="0.56"/>
</g>
<defs>
<clipPath id="clip0_17398_150325">
<rect width="21.5338" height="13.0216" fill="white" transform="translate(0.39209 0.249878)"/>
</clipPath>
</defs>
</svg>