<svg width="45" height="13" viewBox="0 0 45 13" fill="none" xmlns="http://www.w3.org/2000/svg">
<g id="svgexport-61" clip-path="url(#clip0_17398_150336)">
<path id="Vector" d="M44.5001 0.246797H42.8945C42.8246 0.243965 42.7562 0.267398 42.7028 0.31248C42.6494 0.357561 42.6148 0.42102 42.6058 0.490351L41.1806 9.55597C41.1675 9.63132 41.1848 9.70879 41.2288 9.77137C41.2727 9.83395 41.3398 9.87652 41.4151 9.88973H42.8945C43.0105 9.88886 43.1224 9.84658 43.2101 9.77051C43.2977 9.69443 43.3553 9.58956 43.3725 9.47478L44.7797 0.580556C44.7928 0.505203 44.7755 0.427731 44.7315 0.365153C44.6875 0.302575 44.6205 0.260007 44.5452 0.246797M24.7271 3.4581H23.0583C22.9792 3.45845 22.9012 3.4774 22.8306 3.51344C22.7601 3.54948 22.6991 3.60159 22.6524 3.66557L20.3522 7.06631L19.369 3.80088C19.341 3.70089 19.2807 3.61299 19.1974 3.55096C19.1142 3.48893 19.0127 3.45627 18.9089 3.4581H17.2672C17.2297 3.45689 17.1924 3.46323 17.1574 3.47674C17.1224 3.49025 17.0905 3.51066 17.0636 3.53674C17.0367 3.56283 17.0152 3.59407 17.0006 3.6286C16.986 3.66313 16.9785 3.70024 16.9785 3.73774C16.9736 3.77063 16.9736 3.80407 16.9785 3.83696L18.8277 9.24927L17.0958 11.6938C17.073 11.7245 17.0566 11.7595 17.0475 11.7966C17.0383 11.8337 17.0367 11.8722 17.0425 11.91C17.0484 11.9477 17.0617 11.984 17.0817 12.0165C17.1017 12.0491 17.1279 12.0774 17.1589 12.0998C17.2085 12.1362 17.2688 12.1552 17.3303 12.1539H18.9991C19.0769 12.1528 19.1534 12.1335 19.2223 12.0975C19.2913 12.0614 19.3508 12.0097 19.396 11.9464L24.9527 3.91815C24.9747 3.88761 24.9904 3.85293 24.9987 3.81618C25.0071 3.77944 25.0079 3.74139 25.0011 3.70432C24.9944 3.66725 24.9802 3.63192 24.9595 3.60046C24.9388 3.569 24.9119 3.54206 24.8805 3.52124C24.8372 3.48467 24.7836 3.46258 24.7271 3.4581ZM5.88328 3.4581C5.69385 4.73901 4.7467 4.73901 3.8266 4.73901H3.29439L3.66424 2.41172C3.67507 2.34322 3.7102 2.28091 3.7632 2.23618C3.81621 2.19146 3.88354 2.16732 3.95289 2.16817H4.18743C4.81886 2.16817 5.40519 2.16817 5.71189 2.52899C5.80596 2.66224 5.87 2.81432 5.89959 2.97473C5.92918 3.13513 5.92362 3.30005 5.88328 3.4581ZM8.03016 1.13081C7.69941 0.80679 7.30232 0.558354 6.86628 0.402624C6.43023 0.246894 5.9656 0.187575 5.50442 0.228756H2.01348C1.89553 0.227998 1.78146 0.270872 1.6932 0.349134C1.60495 0.427396 1.54875 0.535522 1.53539 0.65272L0.128194 9.56499C0.12177 9.60177 0.122776 9.63946 0.131152 9.67584C0.139528 9.71222 0.155105 9.74656 0.176964 9.77683C0.198823 9.80709 0.226522 9.83268 0.258426 9.85207C0.290331 9.87146 0.325795 9.88426 0.362727 9.88973H2.07662C2.19136 9.88921 2.30223 9.8482 2.38969 9.77394C2.47715 9.69968 2.53559 9.59694 2.55471 9.4838L2.93357 7.06631C2.95096 6.95239 3.00891 6.84858 3.09676 6.774C3.1846 6.69941 3.29643 6.65906 3.41166 6.66038H4.50314C6.79435 6.66038 8.11135 5.55086 8.46315 3.35887C8.55661 2.97829 8.5663 2.58195 8.49154 2.19725C8.41678 1.81256 8.25936 1.44869 8.03016 1.13081ZM13.5597 6.69647C13.5052 7.15746 13.2751 7.57971 12.9173 7.8754C12.5594 8.17109 12.1014 8.31746 11.6384 8.28408C11.4309 8.297 11.2232 8.2641 11.0298 8.18771C10.8365 8.11132 10.6624 7.99331 10.5198 7.84207C10.3956 7.67631 10.308 7.48604 10.2629 7.28387C10.2178 7.08169 10.2162 6.87224 10.2582 6.6694C10.3217 6.22078 10.5461 5.81053 10.8896 5.51512C11.2332 5.21971 11.6724 5.05929 12.1255 5.06375C12.3329 5.05382 12.54 5.08991 12.7318 5.16945C12.9236 5.24899 13.0955 5.37 13.235 5.5238C13.3639 5.68726 13.4557 5.87682 13.504 6.07932C13.5523 6.28183 13.5559 6.49242 13.5146 6.69647M15.869 3.4581H14.2002C14.1324 3.45939 14.0672 3.4845 14.0161 3.52903C13.965 3.57357 13.9311 3.63468 13.9206 3.70165L13.8484 4.17072L13.7311 3.99933C13.4779 3.74141 13.1691 3.54475 12.8283 3.42437C12.4875 3.30399 12.1237 3.26308 11.7647 3.30475C10.8435 3.31927 9.95852 3.6658 9.27242 4.28063C8.58633 4.89547 8.14521 5.73729 8.03016 6.65136C7.94084 7.0965 7.95029 7.55581 8.05783 7.9969C8.16538 8.43798 8.3684 8.8501 8.65258 9.20417C8.91512 9.49387 9.23967 9.72057 9.60202 9.86739C9.96437 10.0142 10.3552 10.0773 10.7453 10.0521C11.1734 10.056 11.5978 9.97332 11.9931 9.809C12.3884 9.64468 12.7464 9.40213 13.0456 9.09592L12.9734 9.55597C12.9603 9.63132 12.9776 9.70879 13.0216 9.77137C13.0656 9.83395 13.1326 9.87652 13.2079 9.88973H14.7595C14.8742 9.88921 14.9851 9.8482 15.0725 9.77394C15.16 9.69968 15.2184 9.59694 15.2376 9.4838L16.1396 3.78284C16.1527 3.70987 16.1364 3.63468 16.0941 3.57378C16.0518 3.51289 15.9871 3.47128 15.9141 3.4581M30.7077 3.4581C30.5183 4.70293 29.5621 4.70293 28.642 4.70293H28.1189L28.4887 2.37564C28.5084 2.31549 28.5473 2.26348 28.5995 2.22762C28.6516 2.19176 28.7141 2.17404 28.7773 2.17719H29.0119C29.6433 2.17719 30.2297 2.17719 30.5363 2.52899C30.6342 2.66908 30.7002 2.82886 30.7298 2.99714C30.7594 3.16542 30.7519 3.33814 30.7077 3.5032M32.8366 1.13081C32.5034 0.807561 32.1046 0.55972 31.6673 0.404084C31.23 0.248448 30.7643 0.188654 30.3018 0.228756H26.7838C26.6701 0.229599 26.5605 0.270923 26.4745 0.345315C26.3885 0.419707 26.3319 0.522297 26.3147 0.634679L24.9075 9.53793C24.8944 9.61328 24.9118 9.69075 24.9558 9.75333C24.9997 9.81591 25.0667 9.85848 25.1421 9.87169H26.9462C27.0264 9.86886 27.1032 9.8387 27.1639 9.78619C27.2247 9.73369 27.2656 9.662 27.2799 9.58303L27.7039 7.06631C27.723 6.95318 27.7815 6.85043 27.8689 6.77617C27.9564 6.70191 28.0673 6.6609 28.182 6.66038H29.2825C31.5647 6.66038 32.8907 5.55086 33.2335 3.35887C33.3284 2.97493 33.338 2.57485 33.2617 2.18678C33.1853 1.79872 33.0248 1.43211 32.7915 1.11277M38.3301 6.67842C38.2662 7.13017 38.0392 7.54292 37.6919 7.83874C37.3446 8.13456 36.9009 8.29297 36.4448 8.28408C36.2391 8.30101 36.0323 8.26834 35.8419 8.1888C35.6514 8.10927 35.4828 7.98519 35.3503 7.827C35.2177 7.66881 35.125 7.48111 35.08 7.27968C35.0351 7.07825 35.0391 6.86897 35.0917 6.6694C35.1518 6.23071 35.3666 5.8279 35.6973 5.53352C36.0281 5.23914 36.4531 5.07255 36.8958 5.06375C37.1025 5.05331 37.3089 5.08828 37.5006 5.1662C37.6923 5.24413 37.8646 5.36311 38.0053 5.51478C38.1355 5.6793 38.2281 5.87039 38.2764 6.07457C38.3247 6.27874 38.3276 6.49103 38.285 6.69647M40.6393 3.4581H38.9795C38.9112 3.45753 38.8451 3.48199 38.7936 3.52686C38.742 3.57173 38.7087 3.63391 38.6999 3.70165L38.6187 4.17072L38.5015 3.99933C38.2504 3.74102 37.9433 3.54399 37.6038 3.42354C37.2644 3.30309 36.9017 3.26244 36.544 3.30475C35.6273 3.32326 34.7478 3.67044 34.0657 4.28305C33.3835 4.89566 32.9441 5.73293 32.8276 6.64234C32.7375 7.08889 32.7465 7.54976 32.8541 7.99242C32.9616 8.43508 33.1651 8.84873 33.45 9.20417C33.7125 9.49387 34.0371 9.72057 34.3994 9.86739C34.7618 10.0142 35.1526 10.0773 35.5427 10.0521C35.9708 10.056 36.3952 9.97332 36.7905 9.809C37.1858 9.64468 37.5438 9.40213 37.843 9.09592L37.7708 9.55597C37.7577 9.63132 37.775 9.70879 37.819 9.77137C37.863 9.83395 37.93 9.87652 38.0053 9.88973H39.602C39.7167 9.88921 39.8276 9.8482 39.915 9.77394C40.0025 9.69968 40.0609 9.59694 40.0801 9.4838L40.9821 3.79186C40.9888 3.74958 40.9861 3.70634 40.974 3.66526C40.962 3.62418 40.941 3.58629 40.9125 3.55435C40.884 3.5224 40.8487 3.49719 40.8093 3.48054C40.7698 3.4639 40.7272 3.45623 40.6844 3.4581" fill="white" fill-opacity="0.56"/>
</g>
<defs>
<clipPath id="clip0_17398_150336">
<rect width="44.6606" height="11.8981" fill="white" transform="translate(0.128906 0.250122)"/>
</clipPath>
</defs>
</svg>