<svg width="32" height="12" viewBox="0 0 32 12" fill="none" xmlns="http://www.w3.org/2000/svg">
<g id="svgexport-58" clip-path="url(#clip0_17398_150323)">
<path id="payment/visa" d="M26.0845 7.32325L27.0577 4.35014C27.0577 4.35014 27.2541 3.74301 27.3791 3.34124L27.5487 4.23407L28.1112 7.28754H26.0845V7.32325ZM6.88869 6.24293L7.13869 7.70717L9.52254 0.48419H12.1117L8.27258 11.0731H5.6923L3.58523 2.14485C3.55611 2.00531 3.47666 1.88137 3.36202 1.79665C2.6185 1.33363 1.81281 0.978887 0.969238 0.743111V0.519904H4.88876C5.15193 0.501415 5.41236 0.583189 5.61772 0.748806C5.82309 0.914423 5.95818 1.15161 5.99586 1.41273L6.88869 6.27865V6.24293ZM13.0849 0.394909H15.5223L13.9956 11.0017H11.5582L13.0849 0.385979V0.394909ZM29.0933 0.48419H27.2095C26.9254 0.457856 26.6412 0.53312 26.4075 0.696601C26.1737 0.860081 26.0055 1.10118 25.9327 1.37702L22.3614 11.0999H24.9149L25.4327 9.51069H28.5487C28.6291 9.88568 28.8523 11.0999 28.8523 11.0999H31.1111L29.0933 0.48419ZM22.8435 0.734181C22.156 0.436638 21.4142 0.284645 20.665 0.287767C18.2544 0.287767 16.558 1.72522 16.5402 3.78765C16.5402 5.30546 17.7544 6.16258 18.674 6.67149C19.5936 7.18041 19.9418 7.51968 19.9418 7.98395C19.9418 8.69821 19.1829 9.01963 18.4865 9.01963C17.6859 9.04432 16.8933 8.85313 16.192 8.46608L15.8884 8.29644L15.5491 10.6714C16.3952 11.0367 17.3061 11.228 18.2276 11.2338C20.79 11.2338 22.4596 9.80532 22.4864 7.60004C22.4864 6.39472 21.8436 5.4751 20.4508 4.7162C19.5579 4.22514 19.0758 3.90372 19.0758 3.40374C19.0758 2.90375 19.5311 2.51091 20.4686 2.51091C21.0877 2.49712 21.7008 2.63506 22.2543 2.91269L22.4864 3.03768L22.8257 0.734181H22.8435Z" fill="white" fill-opacity="0.56"/>
</g>
<defs>
<clipPath id="clip0_17398_150323">
<rect width="30.0972" height="10.9461" fill="white" transform="translate(0.969238 0.287598)"/>
</clipPath>
</defs>
</svg>