<svg width="16" height="16" viewBox="0 0 16 16" fill="none" xmlns="http://www.w3.org/2000/svg">
<g id="YouTube - Original" clip-path="url(#clip0_17398_150312)">
<path id="Vector" d="M15.6816 4.12353C15.5911 3.78313 15.4128 3.47247 15.1646 3.22263C14.9163 2.97279 14.6068 2.79253 14.267 2.69989C13.0161 2.36353 8.01611 2.36353 8.01611 2.36353C8.01611 2.36353 3.01611 2.36353 1.7652 2.69989C1.4254 2.79253 1.11589 2.97279 0.867638 3.22263C0.619391 3.47247 0.441117 3.78313 0.350659 4.12353C0.0161133 5.37989 0.0161133 7.99989 0.0161133 7.99989C0.0161133 7.99989 0.0161133 10.6199 0.350659 11.8763C0.441117 12.2166 0.619391 12.5273 0.867638 12.7771C1.11589 13.027 1.4254 13.2073 1.7652 13.2999C3.01611 13.6363 8.01611 13.6363 8.01611 13.6363C8.01611 13.6363 13.0161 13.6363 14.267 13.2999C14.6068 13.2073 14.9163 13.027 15.1646 12.7771C15.4128 12.5273 15.5911 12.2166 15.6816 11.8763C16.0161 10.6199 16.0161 7.99989 16.0161 7.99989C16.0161 7.99989 16.0161 5.37989 15.6816 4.12353Z" fill="black"/>
<path id="Vector_2" d="M6.37939 10.379V5.62085L10.5612 7.99994L6.37939 10.379Z" fill="#F1ECE4"/>
</g>
<defs>
<clipPath id="clip0_17398_150312">
<rect width="16" height="16" fill="white"/>
</clipPath>
</defs>
</svg>