<?xml version="1.0" encoding="UTF-8"?>
<svg width="124px" height="28px" viewBox="0 0 124 28" version="1.1" xmlns="http://www.w3.org/2000/svg" xmlns:xlink="http://www.w3.org/1999/xlink">
    <title>brand-logo</title>
    <g id="brand-logo" stroke="none" stroke-width="1" fill="none" fill-rule="evenodd">
        <g id="www.honeybirdette.com" transform="translate(0.000000, 0.000000)" fill="#231F20" fill-rule="nonzero">
            <path d="M62.5042373,19.9887711 C58.8187019,19.2968081 55.3348349,18.6399983 51.9693787,18.6399983 C51.917574,18.6399983 51.8676194,18.6418485 51.8176649,18.6436987 C51.7769612,18.6436987 51.7362575,18.6455488 51.6937036,18.647399 L51.6085959,18.647399 C51.6085959,18.647399 51.6529999,18.5733923 51.6529999,18.5733923 C52.3505134,17.4225876 52.9444174,16.3439394 53.423611,15.4762105 C53.5827255,15.1875842 53.730739,14.92116 53.8639511,14.6806381 C55.6271615,11.5353519 56.8353215,10.5159091 57.1350487,10.2938889 C56.5910992,10.0774192 55.2719292,10.2087812 53.6641329,12.1329563 L53.3755066,12.427133 C52.7927036,13.0191869 52.1895487,13.6334428 51.4069275,14.3476078 C50.4411397,15.2060859 49.7695285,15.7278334 49.0923669,16.1515219 C48.6982811,16.3568906 48.4318568,16.4031448 48.2986447,16.2884344 C48.1894848,16.1644731 48.2116868,15.9072997 48.3485992,15.6297744 C48.6020723,15.0839748 49.0091093,14.4105135 49.521606,13.6833973 C50.1950673,12.7194596 50.7649191,11.9349882 51.21451,11.3540354 C51.4254292,11.0672593 51.6270976,10.7730825 51.54384,10.602867 C51.4864848,10.4881566 51.2959174,10.4308014 50.9739881,10.4308014 C50.7908215,10.4308014 50.3319797,10.6158182 49.9119915,10.9136953 C49.5290067,11.141266 48.5613686,12.0034445 48.3115959,12.2791196 C47.9212104,12.6750556 47.4827205,13.1061448 47.0090774,13.5594361 L46.972074,13.5945892 C46.1894528,14.3402071 45.5381935,14.9267105 45.2939713,15.1431802 L45.2329158,15.1949849 C45.2033131,15.2190371 45.1737104,15.2449394 45.1459578,15.2652913 C43.7342794,16.3309882 42.6260286,16.6159142 42.1930892,16.6159142 C41.6713417,16.6159142 41.4067676,16.3383889 41.4067676,15.7907391 C41.4067676,15.5724192 41.4567222,15.2319882 41.5991851,14.9896162 L41.608436,14.9711145 L41.6287878,14.9674142 C42.3374023,14.8045993 43.7231784,14.3809108 44.631611,13.8795152 C45.5344932,13.3799697 46.5779881,12.6843064 46.6390437,11.7333199 C46.653845,11.4742963 46.5779881,11.2467256 46.422574,11.0783603 C46.2079545,10.8470893 45.8416211,10.7249781 45.3642777,10.7249781 L45.3328248,10.7249781 C44.3688871,10.7249781 43.3272424,11.0617088 42.0580269,11.7814243 C41.5547811,12.1070539 40.9553265,12.5825472 40.4021262,13.2486078 C40.0746464,13.6630455 39.6454073,14.3476078 39.5121952,14.6750876 C39.3697323,14.812 39.2309696,14.943362 39.1125589,15.0525219 C38.7332743,15.4262559 38.2984848,15.7500354 37.7804377,16.0460623 C37.5047626,16.2218283 37.1421296,16.3457896 36.9608131,16.2199781 C36.7831969,16.0571633 36.8072491,15.7981398 37.03667,15.3466987 C37.2272373,15.0192189 37.5436161,14.5492761 37.993207,13.8943165 L38.1375201,13.690798 C38.587111,13.0524899 39.0959073,12.3290741 39.1236599,11.7684731 C39.1495622,11.4835472 39.0866565,11.2559765 38.9349427,11.0876111 C38.7443754,10.8729916 38.4094949,10.7619815 37.971005,10.7619815 C36.6388838,10.7619815 35.1550488,11.8831835 34.1541077,12.7250101 C32.9699999,13.6981987 31.8858013,14.6917391 31.2641447,15.2967441 L31.2382424,15.3207963 L30.8515572,15.6538266 L31.1309326,15.1986852 C31.2807962,14.9785152 31.4399107,14.745394 31.6064259,14.5067222 C31.9209545,14.0515808 32.244734,13.5797879 32.5463114,13.119096 C32.8774915,12.636202 33.2160723,12.0774512 33.2160723,11.5945573 C33.2160723,11.0339563 32.8793417,10.7619815 32.1855286,10.7619815 C31.3585033,10.7619815 29.5064848,11.7166684 28.9033299,11.9571903 L28.5073939,12.1144546 L28.5,12.0515488 C28.453739,11.657463 28.2724225,11.317032 28.0170993,11.141266 C27.5342053,10.7730825 26.8736952,10.7268283 26.3500976,10.7268283 C25.2307458,10.7638317 23.9559798,11.317032 23.2048114,11.7777239 C22.6220084,12.1274057 21.826436,12.7509125 21.3416919,13.4558266 C20.9846094,13.9165185 20.7977424,14.4253148 20.7015336,14.7731465 L20.6978333,14.7860977 L20.6885825,14.7953485 C20.3851548,15.0839748 20.1705353,15.2782424 20.013271,15.4059041 C19.112239,16.1385707 18.3666212,16.5104546 17.7986195,16.5104546 C17.5266448,16.5104546 17.199165,16.3513401 17.1658619,15.9017492 C17.0511515,14.7971987 18.7237037,12.1866111 20.1945875,10.0367155 L20.2075387,10.0163637 L20.2297407,10.0163637 C22.5220993,9.88500171 24.442574,9.21154043 25.5267727,8.74344784 C23.6784545,9.34475256 22.1261633,9.33735188 20.8236447,9.23559262 L20.7422373,9.23004212 L20.8051431,9.13568353 C21.3805454,8.25685357 22.1983198,7.14675256 22.9920421,6.1680135 C24.3352643,4.5546667 25.0235269,3.77944617 25.8005976,3.16334011 C26.1502794,2.88026435 27.3824915,1.95518018 28.5684494,1.95518018 C29.7544074,1.95518018 30.1947474,2.50653034 30.3964158,2.9709226 C30.431569,3.05233001 30.453771,3.12448657 30.4704225,3.17999162 C30.4796734,3.20774415 30.4889242,3.23919701 30.498175,3.25769869 C30.5518299,3.21329465 30.5740319,3.041229 30.4926245,2.79515661 C30.3187087,2.19755223 29.6452474,1.59439735 28.5369966,1.59439735 C27.4287457,1.59439735 26.0781229,2.0180859 24.8385101,2.78590576 C23.112303,3.81459937 21.4249495,5.56300845 20.5720219,6.51584515 C19.8023518,7.33546973 19.1251902,8.13104212 18.496133,8.94511619 L18.4794815,8.96731821 L18.4517289,8.96361788 C17.1695623,8.79340239 15.9984057,8.64908926 14.6588838,8.61578623 L14.5737761,8.61578623 C14.5737761,8.61578623 14.6218804,8.53992932 14.6218804,8.53992932 C15.0807222,7.84611619 15.6524242,6.98208758 16.3739899,5.92749162 C17.2010151,4.76188556 17.8522744,3.95336199 18.6256448,3.13558758 C18.7107525,3.03937883 18.7903097,2.95797142 18.8624663,2.88951519 C18.9697761,2.7840556 19.0641346,2.69154718 19.0585841,2.6378923 C19.0585841,2.61939061 19.0382323,2.59718859 19.0049293,2.57498657 C18.8495151,2.47322731 18.5923417,2.64714314 18.2667121,2.86731317 C18.2038064,2.90986704 18.1372003,2.95427108 18.0705942,2.99867512 C17.386032,3.43531485 14.8679528,3.20034347 12.4312811,2.97462294 C11.8595791,2.92096805 11.3174798,2.87286368 10.8086835,2.8303098 C8.11483837,2.59903876 5.93719023,3.13188725 4.51441077,4.37150004 C3.49681818,5.25588051 2.90291414,6.48809263 2.79745454,7.93307411 C2.6475909,9.74808925 3.87795286,11.5075994 5.72072053,12.1163047 C5.97419359,12.2051128 6.15551009,12.206963 6.22211615,12.17366 C6.242468,12.1625589 6.24431817,12.1533081 6.24616834,12.1496078 C6.25541918,12.1181549 6.25726935,12.1107542 6.07040235,12.0515488 C6.02414814,12.0367475 5.97049326,12.020096 5.90758753,11.997894 C3.72068855,11.1893704 3.5597239,9.21154043 3.65963299,8.10328959 C3.91310605,5.26513135 6.44228618,3.60553034 10.4645522,3.60553034 C10.6421683,3.60553034 10.8197845,3.60923068 11.0029512,3.61478118 C13.6708939,3.72024078 16.5664074,3.82200004 18.0909461,3.21144448 L17.8818771,3.32430475 C15.6117205,4.42515492 13.4729259,6.85627613 12.0760488,8.67684178 L12.0630976,8.6934933 L12.0427458,8.6934933 C9.28414477,8.94326602 7.68189898,9.65928117 7.02693938,10.020064 C8.45896968,9.56862293 9.92800335,9.35030306 11.506197,9.35030306 L11.5913047,9.35030306 L11.5450505,9.42430979 C11.4969461,9.50386703 11.4395909,9.59637545 11.3507828,9.75363976 C11.199069,9.97565996 11.0418047,10.2124815 10.8752895,10.4604041 C9.07137541,13.152399 6.34607743,17.219069 3.308101,17.219069 C2.65129124,17.219069 1.93897643,16.9378435 1.9056734,16.1496717 C1.9056734,15.8110909 2.03703535,15.5187643 2.32011111,15.2319882 C2.60873737,14.9378115 2.77155218,14.59183 2.79930471,14.2051448 C2.83075757,13.7925573 2.71604713,13.4206734 2.47737542,13.1579495 C2.27015656,12.9303788 1.99448148,12.811968 1.67625252,12.811968 C0.736367002,12.811968 5.25849472e-15,13.657495 5.25849472e-15,14.7379933 C5.25849472e-15,15.9850068 0.827025251,17.4410892 3.15268686,17.4410892 C7.81881144,17.4410892 11.3729848,13.2874613 13.946569,9.66668185 L14.0668299,9.50756737 C14.6200303,9.56862293 15.1695303,9.64077949 15.7023788,9.71108589 C16.3980421,9.80174414 17.0530017,9.88870205 17.7209124,9.95345794 L17.8060202,9.96085861 L17.7560656,10.0293148 C16.8790858,11.2430253 15.05667,13.7685051 15.1121751,15.4410573 C15.1399276,16.4567997 15.8559427,17.0155505 17.1270084,17.0155505 C18.398074,17.0155505 19.584032,16.0793653 20.0687761,15.6778788 L20.1427828,15.6149731 C20.2445421,15.5280152 20.3703535,15.4133047 20.529468,15.2671414 L20.6201262,15.1820337 L20.6071751,15.3078451 C20.6053249,15.3337475 20.6016245,15.3596499 20.5979242,15.3874024 C20.5923737,15.4318064 20.584973,15.4743603 20.584973,15.5113637 C20.584973,16.5641094 21.3139394,17.1210101 22.6923148,17.1210101 L22.7219175,17.1210101 C23.9245269,17.1210101 25.6137306,16.3217374 26.4907104,15.5835202 C26.7904377,15.328197 27.0679629,15.0506717 27.3158855,14.756495 C27.3232862,14.7490943 27.3306868,14.7398435 27.3380875,14.7305926 L27.3528888,14.7157913 C27.9856464,13.9664731 28.4019343,13.1764512 28.4944427,12.547394 L28.5,12.5196414 C28.5,12.5196414 30.9218636,11.3947391 31.0550757,11.6001078 C31.2141902,11.7370202 31.1068804,11.9627408 30.9681178,12.1866111 C30.8238047,12.4086313 30.6609899,12.6454529 30.5074259,12.8674731 C30.3964158,13.0284377 30.2835555,13.1931027 30.1669949,13.3633182 C30.0097306,13.5908889 29.8450656,13.8351111 29.6767003,14.0922845 C29.6285959,14.1588906 29.5823417,14.2273468 29.5342373,14.2958031 L29.5175858,14.3198552 C29.0235909,15.0377206 28.5203451,15.8924983 28.2631717,16.449399 L28.2594713,16.4623502 C28.1910151,16.6529175 28.1817643,16.7657778 28.2280185,16.834234 C28.300175,16.9341431 28.5203451,16.965596 28.9884377,16.943394 C29.6045437,16.9100909 29.9172222,16.845335 30.2502525,16.5326566 C31.5009663,15.372601 32.3279915,14.6066313 33.7600218,13.3929209 C34.6499528,12.6288014 35.4399747,12.042298 36.0449797,11.6963165 C36.520473,11.4243418 36.8090993,11.3484849 36.9830151,11.4502441 C37.0533215,11.4761465 37.1051262,11.5298014 37.1273282,11.6019579 C37.1587811,11.7074175 37.1236279,11.84433 37.0311195,11.9793923 C36.6721868,12.5029899 36.2114949,13.1338973 35.7674545,13.7092997 C35.1254461,14.6288334 34.7276599,15.2245876 34.6684545,15.8351431 C34.6314511,16.0886162 34.6351515,16.4456987 34.8645723,16.7065724 C35.0773417,16.9507946 35.4344242,17.0673552 35.9432205,17.0507037 C36.7332424,17.0507037 37.6805286,16.580761 38.8387339,15.6149731 C38.9571447,15.5187643 39.1458619,15.3485488 39.3697323,15.14133 C39.3382794,15.2911936 39.3197777,15.4392071 39.3197777,15.5816701 C39.3049764,16.053463 39.4196868,16.4031448 39.6694595,16.658468 C40.0061902,16.998899 40.5945437,17.1561633 41.4252693,17.11916 C42.6149275,17.0840068 43.8582407,16.5659596 45.1219057,15.5779697 C45.741712,15.1135775 46.7537541,14.1588906 47.1681918,13.7370522 L46.8925168,14.1403889 C46.7667053,14.3291061 46.653845,14.5011717 46.5594865,14.6547357 C46.202404,15.2116364 46.0432895,15.6501263 46.0432895,16.075665 C46.0284881,16.3790926 46.104345,16.6214647 46.2708602,16.7972307 C46.4706784,17.0118502 46.7926077,17.1210101 47.2273972,17.1210101 C48.5632188,17.1210101 49.906441,15.9683552 50.8870302,15.1246785 C51.1146009,14.9304108 51.7103551,14.4086633 52.4263703,13.724101 L52.6946447,13.4669276 L52.4985269,13.7851566 C52.3172104,14.0793334 52.1451447,14.3735101 51.973079,14.6861886 C51.7362575,15.1154276 51.4975858,15.5539175 51.2552137,15.9979579 C50.7630689,16.9026903 50.2524225,17.8370253 49.730675,18.7584091 L49.7177238,18.778761 L49.6955218,18.778761 C46.5465353,19.1617458 43.5511127,20.3588047 41.2661548,22.1497677 C39.3604814,23.6428535 38.1745235,25.4023636 38.2466801,26.6345758 C38.2984848,27.5171061 39.0015488,28 40.2282104,28 C43.9896026,28 47.6362844,25.0711835 51.3717743,19.043335 L51.3865757,19.021133 L51.4106279,19.021133 C51.4420807,19.021133 51.4735336,19.0192828 51.5031363,19.0174327 C51.5456902,19.0174327 51.5863939,19.0155825 51.6270976,19.0155825 C53.995313,19.0155825 57.2627103,19.8037542 60.720675,20.63633 C64.8521009,21.6317205 69.1259898,22.6622643 72.8189258,22.6622643 C74.9373686,22.6622643 78.1344595,22.3125825 81.3371009,20.6529815 C82.3121396,20.1478855 83.0559073,19.6372391 83.5517524,19.2579546 C82.2159308,20.0405758 79.1131985,21.3856482 73.5756447,21.3856482 C69.9493147,21.3856482 66.1657204,20.6751835 62.5060874,19.9869209 M41.7527491,14.6436347 C42.0728282,13.9757239 42.5723737,13.2153047 43.2347339,12.3771785 L43.2347339,12.3771785 C43.9451986,11.5001987 44.5483535,11.0191549 44.9331885,11.0191549 C45.0664006,11.0191549 45.1737104,11.0635589 45.2440168,11.152367 C45.3291245,11.2578266 45.3550269,11.4150909 45.3161733,11.6056583 C45.2551178,12.0719007 44.751872,12.9340791 43.9451986,13.6093906 C43.2606363,14.1755421 42.4576632,14.5881297 41.8008535,14.7139411 L41.7083451,14.7305926 L41.7508989,14.6436347 L41.7527491,14.6436347 Z M27.4102441,11.2541263 C27.4694495,11.3669866 27.5009023,11.6408115 27.5046026,11.7111179 C27.5120033,11.8591313 27.4879511,12.0274967 27.4342963,12.2162138 C27.4176447,12.2902206 27.3861919,12.3975303 27.3288367,12.5381431 C27.3269865,12.5381431 27.3251363,12.5381431 27.3232862,12.5381431 C27.0957154,12.5954983 26.8644444,12.636202 26.6387239,12.6473031 C26.3945016,12.6547037 26.1391784,12.6399024 25.9578619,12.5177913 C25.8042979,12.4197323 25.7506431,12.2698687 25.7450926,12.1218552 C25.7450926,12.0830017 25.7450926,12.0441482 25.7506431,12.0071448 C25.7672946,11.8239781 25.8524023,11.646362 25.9763636,11.503899 C26.0947744,11.3521852 26.26684,11.250426 26.4703585,11.152367 C26.6627761,11.0635589 26.9069983,11.0080539 27.134569,11.0376566 C27.2566801,11.0635589 27.3565892,11.1486667 27.4120942,11.2541263 M27.0735134,13.0598906 L27.0494612,13.1024445 C27.0420606,13.1153956 27.0346599,13.1264967 27.0272592,13.1394478 L27.0069074,13.1727509 C26.9514023,13.2689596 26.8940471,13.361468 26.8348417,13.4539765 C26.8292912,13.4613771 26.827441,13.4687778 26.8218905,13.4761785 C26.8200404,13.4798788 26.81634,13.481729 26.8144899,13.4854293 C26.5166128,13.9498216 26.1909831,14.3624091 25.9985656,14.5955303 L25.9985656,14.602931 C25.9985656,14.602931 25.9874646,14.6214327 25.9874646,14.6214327 C25.0697811,15.7074815 23.6988064,16.8601364 22.9661397,16.8601364 L22.9346868,16.8601364 C22.5813047,16.8601364 22.4554932,16.5678098 22.4554932,16.3180371 C22.4869461,15.5446667 23.3176717,14.1755421 24.0928922,13.2634091 C24.2945606,13.0154866 24.540633,12.734261 24.7996565,12.4881886 C24.7996565,12.4881886 24.7996565,12.4881886 24.7996565,12.4881886 C24.8847643,12.3993805 24.969872,12.3142728 25.0531296,12.2347155 C25.0605303,12.2587677 25.0697811,12.2828199 25.0808821,12.3068721 C25.1271363,12.4123317 25.190042,12.5122408 25.2621986,12.5973485 C25.4083619,12.7546128 25.5711767,12.8415707 25.7358417,12.9118771 C25.8413013,12.9562812 25.9430606,12.9821835 26.0448198,13.0025354 C26.2594394,13.0450892 26.4666582,13.0413889 26.6590757,13.0173367 C26.827441,12.9969849 26.9865555,12.9599815 27.1419697,12.9174276 C27.1179175,12.9618317 27.0938653,13.0080859 27.0679629,13.0561903 L27.0698131,13.0561903 L27.0735134,13.0598906 Z M49.4327979,19.2727559 C47.0072272,23.4818889 44.0340067,27.7835303 40.3651228,27.7835303 C39.8933299,27.7835303 39.6121043,27.5245067 39.5751009,27.0564141 C39.432638,25.2210471 43.0885706,20.2237424 49.3846935,19.2024495 L49.4846026,19.185798 L49.4327979,19.2746061 L49.4327979,19.2727559 Z" id="Shape"/>
        </g>
    </g>
</svg>
